HIERARCHY
ROOT hip
{
  OFFSET 0 0 0
  CHANNELS 6 Xposition Yposition Zposition Zrotation Yrotation Xrotation
  JOINT abdomen
  {
    OFFSET 0 20.6881 -0.73152
    CHANNELS 3 Zrotation Xrotation Yrotation
    JOINT chest
    {
      OFFSET 0 11.7043 -0.48768
      CHANNELS 3 Zrotation Xrotation Yrotation
      JOINT neck
      {
        OFFSET 0 22.1894 -2.19456
        CHANNELS 3 Zrotation Xrotation Yrotation
        JOINT head
        {
          OFFSET -0.24384 7.07133 1.2192
          CHANNELS 3 Zrotation Xrotation Yrotation
          JOINT leftEye
          {
            OFFSET 4.14528 8.04674 8.04672
            CHANNELS 3 Zrotation Xrotation Yrotation
            End Site
            {
              OFFSET 1 0 0
            }
          }
          JOINT rightEye
          {
            OFFSET -3.6576 8.04674 8.04672
            CHANNELS 3 Zrotation Xrotation Yrotation
            End Site
            {
              OFFSET 1 0 0
            }
          }
        }
      }
      JOINT rCollar
      {
        OFFSET -2.68224 19.2634 -4.8768
        CHANNELS 3 Zrotation Xrotation Yrotation
        JOINT rShldr
        {
          OFFSET -8.77824 -1.95073 1.46304
          CHANNELS 3 Zrotation Xrotation Yrotation
          JOINT rForeArm
          {
            OFFSET -28.1742 -1.7115 0.48768
            CHANNELS 3 Zrotation Xrotation Yrotation
            JOINT rHand
            {
              OFFSET -22.5879 0.773209 7.07136
              CHANNELS 3 Zrotation Xrotation Yrotation
              JOINT rThumb1
              {
                OFFSET -1.2192 -0.487915 3.41376
                CHANNELS 3 Zrotation Xrotation Yrotation
                JOINT rThumb2
                {
                  OFFSET -3.37035 -0.52449 3.41376
                  CHANNELS 3 Zrotation Xrotation Yrotation
                  End Site
                  {
                    OFFSET -1.78271 -1.18214 1.43049
                  }
                }
              }
              JOINT rIndex1
              {
                OFFSET -7.75947 0.938293 5.60832
                CHANNELS 3 Zrotation Xrotation Yrotation
                JOINT rIndex2
                {
                  OFFSET -2.54057 -0.884171 1.56538
                  CHANNELS 3 Zrotation Xrotation Yrotation
                  End Site
                  {
                    OFFSET -1.62519 -0.234802 1.16502
                  }
                }
              }
              JOINT rMid1
              {
                OFFSET -8.24714 1.18213 3.41376
                CHANNELS 3 Zrotation Xrotation Yrotation
                JOINT rMid2
                {
                  OFFSET -3.10165 -0.590103 1.0647
                  CHANNELS 3 Zrotation Xrotation Yrotation
                  End Site
                  {
                    OFFSET -2.48547 -0.328903 0.83742
                  }
                }
              }
              JOINT rRing1
              {
                OFFSET -8.82822 0.546677 1.51678
                CHANNELS 3 Zrotation Xrotation Yrotation
                JOINT rRing2
                {
                  OFFSET -2.60934 -0.819778 -0.0198488
                  CHANNELS 3 Zrotation Xrotation Yrotation
                  End Site
                  {
                    OFFSET -2.33842 -0.294052 0.168128
                  }
                }
              }
              JOINT rPinky1
              {
                OFFSET -8.27202 -0.0477905 -0.4584
                CHANNELS 3 Zrotation Xrotation Yrotation
                JOINT rPinky2
                {
                  OFFSET -1.82734 -0.647385 -0.700984
                  CHANNELS 3 Zrotation Xrotation Yrotation
                  End Site
                  {
                    OFFSET -1.69225 -0.51767 -0.607171
                  }
                }
              }
            }
          }
        }
      }
      JOINT lCollar
      {
        OFFSET 2.68224 19.2634 -4.8768
        CHANNELS 3 Zrotation Xrotation Yrotation
        JOINT lShldr
        {
          OFFSET 8.77824 -1.95073 1.46304
          CHANNELS 3 Zrotation Xrotation Yrotation
          JOINT lForeArm
          {
            OFFSET 28.1742 -1.7115 0.48768
            CHANNELS 3 Zrotation Xrotation Yrotation
            JOINT lHand
            {
              OFFSET 22.5879 0.773209 7.07136
              CHANNELS 3 Zrotation Xrotation Yrotation
              JOINT lThumb1
              {
                OFFSET 1.2192 -0.487915 3.41376
                CHANNELS 3 Zrotation Xrotation Yrotation
                JOINT lThumb2
                {
                  OFFSET 3.37035 -0.52449 3.41376
                  CHANNELS 3 Zrotation Xrotation Yrotation
                  End Site
                  {
                    OFFSET 1.78271 -1.18214 1.43049
                  }
                }
              }
              JOINT lIndex1
              {
                OFFSET 7.75947 0.938293 5.60832
                CHANNELS 3 Zrotation Xrotation Yrotation
                JOINT lIndex2
                {
                  OFFSET 2.54057 -0.884171 1.56538
                  CHANNELS 3 Zrotation Xrotation Yrotation
                  End Site
                  {
                    OFFSET 1.62519 -0.234802 1.16502
                  }
                }
              }
              JOINT lMid1
              {
                OFFSET 8.24714 1.18213 3.41376
                CHANNELS 3 Zrotation Xrotation Yrotation
                JOINT lMid2
                {
                  OFFSET 3.10165 -0.590103 1.0647
                  CHANNELS 3 Zrotation Xrotation Yrotation
                  End Site
                  {
                    OFFSET 2.48547 -0.328903 0.83742
                  }
                }
              }
              JOINT lRing1
              {
                OFFSET 8.82822 0.546677 1.51678
                CHANNELS 3 Zrotation Xrotation Yrotation
                JOINT lRing2
                {
                  OFFSET 2.60934 -0.819778 -0.0198488
                  CHANNELS 3 Zrotation Xrotation Yrotation
                  End Site
                  {
                    OFFSET 2.33842 -0.294052 0.168128
                  }
                }
              }
              JOINT lPinky1
              {
                OFFSET 8.27202 -0.0477905 -0.4584
                CHANNELS 3 Zrotation Xrotation Yrotation
                JOINT lPinky2
                {
                  OFFSET 1.82734 -0.647385 -0.700984
                  CHANNELS 3 Zrotation Xrotation Yrotation
                  End Site
                  {
                    OFFSET 1.69225 -0.51767 -0.607171
                  }
                }
              }
            }
          }
        }
      }
    }
  }
  JOINT rButtock
  {
    OFFSET -8.77824 4.35084 1.2192
    CHANNELS 3 Zrotation Xrotation Yrotation
    JOINT rThigh
    {
      OFFSET 0 -1.70687 -2.19456
      CHANNELS 3 Zrotation Xrotation Yrotation
      JOINT rShin
      {
        OFFSET 0 -36.8199 0.73152
        CHANNELS 3 Zrotation Xrotation Yrotation
        JOINT rFoot
        {
          OFFSET 0.73152 -45.1104 -5.12064
          CHANNELS 3 Zrotation Xrotation Yrotation
          End Site
          {
            OFFSET -1.1221 -3.69964 12.103
          }
        }
      }
    }
  }
  JOINT lButtock
  {
    OFFSET 8.77824 4.35084 1.2192
    CHANNELS 3 Zrotation Xrotation Yrotation
    JOINT lThigh
    {
      OFFSET 0 -1.70687 -2.19456
      CHANNELS 3 Zrotation Xrotation Yrotation
      JOINT lShin
      {
        OFFSET 0 -36.8199 0.73152
        CHANNELS 3 Zrotation Xrotation Yrotation
        JOINT lFoot
        {
          OFFSET -0.73152 -45.1104 -5.12064
          CHANNELS 3 Zrotation Xrotation Yrotation
          End Site
          {
            OFFSET 1.1221 -3.69964 12.103
          }
        }
      }
    }
  }
}
MOTION
Frames:	5
Frame Time:	0.03333
0.0 0.0 0.0 0.0 0.0 0.0 0.0 0.0 0.0 0.0 0.0 0.0 0.0 0.0 0.0 0.0 0.0 0.0 0.0 0.0 0.0 0.0 0.0 0.0 0.0 0.0 0.0 0.0 0.0 0.0 0.0 0.0 0.0 0.0 0.0 0.0 0.0 0.0 0.0 0.0 0.0 0.0 0.0 0.0 0.0 0.0 0.0 0.0 0.0 0.0 0.0 0.0 0.0 0.0 0.0 0.0 0.0 0.0 0.0 0.0 0.0 0.0 0.0 0.0 0.0 0.0 0.0 0.0 0.0 0.0 0.0 0.0 0.0 0.0 0.0 0.0 0.0 0.0 0.0 0.0 0.0 0.0 0.0 0.0 0.0 0.0 0.0 0.0 0.0 0.0 0.0 0.0 0.0 0.0 0.0 0.0 0.0 0.0 0.0 0.0 0.0 0.0 0.0 0.0 0.0 0.0 0.0 0.0 0.0 0.0 0.0 0.0 0.0 0.0 0.0 0.0 0.0 0.0 0.0 0.0 0.0 0.0 0.0 0.0 0.0 0.0 0.0 0.0 0.0 0.0 0.0 0.0
9.2456 54.8542 -150.9936 1.311849 44.99709 2.272528 -9.944195 6.887599 55.627625 -4.087739 -10.648006 -60.358288 6.597198 31.250806 110.762227 -33.399685 19.269386 -155.740678 0.000175 0.0 0.001408 0.000175 0.0 0.001408 -14.147671 43.061737 15.995932 102.580381 -35.267909 74.876199 0.890576 -6.02328 88.319423 -8.675188 41.991678 3.861177 -5.434233 5.264656 1.078333 -25.059632 20.041126 24.74141 -104.945001 35.935448 88.748239 -160.252642 -3.445519 115.425165 -160.82526 -7.142052 143.316029 3.433398 -0.61845 0.279839 0.000269 -0.061018 -0.018002 6.91867 29.712409 4.67479 -156.380404 53.733381 -150.121692 -162.045649 54.172972 -147.223816 143.334367 38.770873 -147.774061 109.995063 32.803531 -71.186229 95.658377 32.696616 112.713697 164.993592 -51.964369 -169.775053 -90.437025 -50.939536 -38.665456 150.608707 -0.843043 -114.113446 10.571886 15.012934 -6.866357 66.671106 48.45631 -49.914182 -2.101506 -6.305206 1.081213 -3.408837 -0.609638 0.105085 145.111932 -0.668632 178.917902 -11.269806 13.757723 7.380398 7.145827 -15.707628 6.725792 159.276469 55.615127 150.001995 -0.005496 0.000556 -0.005496 -62.810611 -47.748297 -138.532744 -74.204361 7.730587 -1.953203 4.026925 26.007941 89.331162 -0.005307 -0.0011 -0.005307 28.212531 -24.467391 13.069966 -78.049703 63.283991 -4.963606 176.070543 -22.741048 -120.008681
9.2376 54.861000000000004 -150.9996 1.335168 45.034471 2.251823 -5.646967 6.026564 -78.606454 8.72616 0.503615 74.030302 4.174303 35.562881 139.778901 -26.127913 34.01814 178.056677 -0.00182 0.0 -0.003081 -0.001065 -0.0 0.002541 3.268737 -26.755882 -5.241097 79.758985 -87.271362 15.725595 0.808289 77.767647 90.519904 -9.990611 44.932527 4.382545 -175.330275 -12.974825 89.797471 -41.304053 -20.698481 4.356208 -19.170848 24.114296 13.381341 -179.810602 -33.659244 107.172063 -10.975082 25.790077 7.639754 -11.529441 33.758174 9.267043 -74.842152 72.959912 92.828405 5.010822 29.771263 -0.487939 -144.857279 11.079653 -141.543855 11.484686 26.6427 4.094021 14.146947 43.061895 -15.995482 -19.944669 41.316263 -64.130707 0.941254 -38.936387 -104.451084 19.982046 -59.734559 19.020026 -1.843083 -1.826858 0.254302 150.700623 -62.470341 -121.69813 46.20723 39.653626 -36.318142 164.553685 -11.288176 -112.140587 -0.290646 -0.849625 0.159527 -91.950766 -78.576449 -62.956493 -0.001397 -0.060872 0.018986 156.362458 -20.597707 -174.271829 154.40912 46.072766 149.059314 24.56312 -39.140288 25.298081 179.998943 75.751099 -0.0 140.679385 6.603939 82.007571 79.5774 7.337632 125.18407 -115.433721 46.900868 -170.713145 179.998943 75.751099 -0.0 -146.389897 41.86099 71.147917 92.887361 11.612939 53.880034 109.68729 80.444603 131.168256
9.2139 54.86 -151.0026 1.357482 45.056569 2.271553 -7.994819 7.934076 -0.0 4.652612 -10.324138 -3.998704 -1.345902 19.485639 28.831095 -12.40015 -22.611184 -80.030031 0.002486 0.0 0.001577 0.002486 0.0 0.001577 -5.825327 24.937092 6.99083 -140.074468 -19.289756 132.760062 -0.938798 -76.418149 -126.440236 152.959708 -40.145294 136.977676 -178.518854 -16.064441 89.475864 0.050873 -58.04419 4.255922 -4.704773 7.224528 2.854896 -86.932186 47.253987 67.419271 -86.294174 60.958775 77.857651 173.189607 -58.957134 136.79785 -0.012967 -1.323219 -0.415479 -61.278563 -86.801787 -82.933023 -95.735563 -48.160702 -94.000779 -8.313909 -23.739956 -11.341167 155.503928 -3.514278 -161.839319 18.22556 -78.866203 -34.791679 72.596704 -65.186457 -34.926825 51.993316 -81.242014 60.327691 0.543795 0.536225 -0.086762 -16.328831 -24.715814 11.682067 151.679634 -17.76464 -121.23726 -8.75311 5.213871 9.069161 82.840592 61.109437 -74.532429 7.207017 26.187379 -6.237727 0.007643 3.557264 -1.118471 155.696327 -1.02643 -171.975054 -8.14468 25.599676 -7.17789 150.019336 19.106888 145.221501 179.992743 75.749871 0.004965 141.774475 7.551414 -0.0 30.264556 70.417473 70.922202 0.306682 28.520166 -84.91558 179.992743 75.749871 0.004965 -144.906085 40.297765 -180.0 -70.427963 -78.159199 169.622319 -164.45952 7.508553 22.48407
9.1919 54.859100000000005 -150.9926 1.279574 45.072455 2.193566 -5.59972 5.016178 -104.237575 6.546098 3.956423 99.49759 -1.906234 19.288557 25.882392 -10.601212 -23.412802 -76.541995 -0.000319 -0.0 0.001137 -0.000319 -0.0 0.001137 -6.25087 26.219234 7.467969 70.021627 -20.131984 46.50301 -69.090267 -22.813119 52.689859 11.300527 -17.838556 7.206593 -19.688428 17.543406 5.976587 -129.073388 -29.241114 105.707238 -0.328889 0.52958 0.185947 7.920088 5.127942 0.349785 -0.059075 0.167717 0.031242 -172.069615 -31.345334 144.104973 -145.118633 0.267894 -179.212174 11.583642 58.796164 -1.665098 0.508876 1.338536 0.466451 -21.860954 -39.419364 -22.592866 157.846388 -65.803725 -175.512442 3.428427 29.60724 49.557175 -0.589649 -45.161285 142.540584 134.434546 34.88221 -122.409983 -2.011322 -1.997155 0.274591 131.897778 -29.207663 -116.907214 19.170522 24.114283 -13.381657 166.530038 -16.707641 -110.443975 174.670882 -47.954007 -144.47951 172.412699 -31.337181 -143.714136 0.014081 -1.323375 0.414438 -4.40465 41.442293 -7.705091 -39.983505 85.641251 0.893472 85.868064 -52.943969 84.303267 -179.991259 75.750813 -0.004474 142.901035 6.280703 -98.23117 -67.563544 -6.338486 85.404411 69.17015 -0.706855 -11.741589 179.988501 75.750007 0.009461 -146.14201 41.724724 70.832394 85.960713 21.334862 -179.231464 -152.076563 59.377518 -110.247023
